<svg viewBox="1 1 512 512" xmlns="http://www.w3.org/2000/svg">
    <path d="M512 256c0 141.387-114.613 256-256 256S0 397.387 0 256 114.613 0 256 0s256 114.613 256 256zm0 0"
          fill="#ff7591"/>
    <path d="M232.492 430.605h47.02v61.125h-47.02zm0 0" fill="#3b3b3b"/>
    <path d="M503.832 86.695v233.68a252.982 252.982 0 0 1-20.898 54.2 255.798 255.798 0 0 1-29.614 44.534 254.934 254.934 0 0 1-19.34 20.895H78.027a255.671 255.671 0 0 1-19.343-20.895 256.02 256.02 0 0 1-29.614-44.535 253.177 253.177 0 0 1-20.894-54.199V86.695c0-10.011 8.117-18.129 18.129-18.129h459.394c10.016 0 18.133 8.118 18.133 18.13zm0 0"
          fill="#4a4a4a"/>
    <path d="M482.934 89.465v285.11a255.798 255.798 0 0 1-29.614 44.534H58.684a256.02 256.02 0 0 1-29.614-44.535V89.464zm0 0"
          fill="#ffd861"/>
    <path d="M373.887 483.297C338.602 501.633 298.52 512 256.004 512c-42.52 0-82.602-10.367-117.887-28.703 28.453-5.395 70.719-8.809 117.887-8.809 47.176 0 89.434 3.414 117.883 8.809zm0 0"
          fill="#4a4a4a"/>
    <path d="M30.797 165.035L359.547.015l26.867 53.528-328.75 165.02zm0 0M481.2 339.32l-253.93 79.79H120.68L68.277 252.308l350.93-110.266zm0 0"
          fill="#3b3b3b"/>
    <g fill="#efefef">
        <path d="M260.082 49.938l53.945-27.083 58.907 37.446-53.95 27.082zm0 0M152.188 104.098l53.945-27.082 58.906 37.449-53.95 27.082zm0 0M44.293 158.262l53.95-27.082 58.902 37.449-53.95 27.082zm0 0M57.676 218.559l350.933-110.282 17.957 57.137L75.633 275.7zm0 0"/>
    </g>
    <path d="M320.379 198.8l57.586-18.097 16.238-67.883-57.586 18.094zm0 0M205.203 234.988l57.586-18.093 16.242-67.887-57.59 18.097zm0 0M90.031 271.176l57.586-18.094 16.238-67.883-57.585 18.094zm0 0"
          fill="#3b3b3b"/>
    <path d="M122.45 311.41l157.468-49.488 5.656 17.996-157.469 49.488zm0 0M136.871 357.3l233.055-73.241 5.656 18-233.055 73.238zm0 0"
          fill="#efefef"/>
</svg>